<?xml version="1.0" encoding="utf-8"?><svg xml:space="preserve" viewBox="0 0 100 100" y="0" x="0" xmlns="http://www.w3.org/2000/svg" id="圖層_1" version="1.1" width="200px" height="200px" xmlns:xlink="http://www.w3.org/1999/xlink" style="width:100%;height:100%;background-size:initial;background-repeat-y:initial;background-repeat-x:initial;background-position-y:initial;background-position-x:initial;background-origin:initial;background-color:initial;background-clip:initial;background-attachment:initial;animation-play-state:paused" ><g class="ldl-scale" style="transform-origin:50% 50%;transform:rotate(0deg) scale(0.68, 0.68);animation-play-state:paused" ><path fill="#d1d1d1" d="M49.476 93.899a3.594 3.594 0 0 1-2.136-.702c-.245-.18-5.524-4.088-12.203-10.119-3.361 2.405-5.666 3.712-5.783 3.779a3.6 3.6 0 0 1-5.14-1.874c-.128-.342-3.074-8.287-5.073-18.622C11.416 56.652 7.5 47.945 7.5 40.471c0-11.254 4.449-20.379 12.865-26.389 7.312-5.221 17.459-7.981 29.345-7.981 11.959 0 22.189 2.687 29.582 7.77C87.933 19.81 92.5 28.888 92.5 40.122c0 8.138-4.746 17.749-14.11 28.577-1.6 9.106-3.806 15.846-3.902 16.139a3.597 3.597 0 0 1-5.054 2.078c-.117-.06-2.431-1.249-5.835-3.469-6.616 5.832-11.77 9.59-12.007 9.764a3.593 3.593 0 0 1-2.116.688z" style="fill:rgb(140, 208, 229);animation-play-state:paused" ></path>
<path fill="#464646" d="M45.311 40.858a5.463 5.463 0 1 1-10.926 0 5.463 5.463 0 0 1 10.926 0zm14.638-5.463a5.463 5.463 0 1 0 0 10.926 5.463 5.463 0 0 0 0-10.926zm28.953 4.727c0 8.616-6.315 18.37-13.888 26.973-1.582 9.453-3.943 16.617-3.943 16.617s-3.272-1.671-7.783-4.814C55.747 85.742 49.475 90.3 49.475 90.3s-6.468-4.771-14.093-11.882c-4.491 3.438-7.797 5.303-7.797 5.303s-3.113-8.332-5.076-18.915c-6.4-7.893-11.411-16.555-11.411-24.336 0-21.533 17.417-30.772 38.612-30.772 21.196.002 39.192 8.891 39.192 30.424zM29.11 30.413c2.424-2.851 4.404-3.841 4.404-3.841.88-.439.818-.988-.138-1.22 0 0-6.184-1.498-8.81 1.59-2.626 3.089.203 8.436.203 8.436.46.869 1.072.811 1.358-.13-.001 0 .628-2.066 2.983-4.835zm30.555 38.018a12.758 12.758 0 0 1-3.134.027c-2.626-.298-4.941-1.342-6.641-2.923-1.7 1.581-4.014 2.625-6.64 2.923a12.753 12.753 0 0 1-3.343-.054c4.085 4.488 9.888 6.691 9.888 6.691s5.734-2.196 9.87-6.664zm10.689-26.514c0-9.16-9.113-16.585-20.354-16.585s-20.354 7.425-20.354 16.585c0 1.526.258 3.001.731 4.404h-.004l.005.002c.914 2.707 2.648 5.137 4.972 7.101.383 1.539.627 3.394.627 5.634 0 .817.08 1.603.227 2.357.189.127.362.283.512.47 1.237 1.541 3.544 2.322 6.021 2.043 2.057-.233 3.76-1.141 4.712-2.476v-1.919a4.926 4.926 0 0 1-.283-.434l-3.914-6.779c-1.41-2.444-.256-4.443 2.565-4.443 0 0 3.037.485 4.038.485.956 0 3.791-.485 3.791-.485 2.821 0 3.975 1.999 2.565 4.443l-3.876 6.712v2.42c.951 1.335 2.655 2.243 4.712 2.477 2.476.279 4.784-.502 6.021-2.043a2.31 2.31 0 0 1 .453-.427c.172-.768.276-1.567.3-2.399.066-2.255.458-4.176 1.012-5.79 2.232-1.936 3.899-4.308 4.789-6.943l.005-.004h-.004c.473-1.405.731-2.881.731-4.406zm5.208-14.873C73 23.875 67.148 25.33 67.148 25.33c-.954.238-1.026.811-.158 1.276 0 0 1.885 1.008 4.25 3.933 2.298 2.841 2.938 4.984 2.938 4.984.282.943.866.991 1.298.107-.002 0 2.647-5.417.086-8.586z" style="fill:rgb(55, 104, 136);animation-play-state:paused" ></path>
<metadata xmlns:d="https://loading.io/stock/" style="animation-play-state:paused" ><d:name style="animation-play-state:paused" >lion</d:name>
<d:tags style="animation-play-state:paused" >cat,animal,wild,africa,alex,zoo,lion,map</d:tags>
<d:license style="animation-play-state:paused" >free</d:license>
<d:slug style="animation-play-state:paused" >orcezf</d:slug></metadata></g><!-- generated by https://loading.io/ --></svg>