<?xml version="1.0" encoding="utf-8"?><svg xml:space="preserve" viewBox="0 0 100 100" y="0" x="0" xmlns="http://www.w3.org/2000/svg" id="圖層_1" version="1.1" width="200px" height="200px" xmlns:xlink="http://www.w3.org/1999/xlink" style="width:100%;height:100%;background-size:initial;background-repeat-y:initial;background-repeat-x:initial;background-position-y:initial;background-position-x:initial;background-origin:initial;background-color:initial;background-clip:initial;background-attachment:initial;animation-play-state:paused" ><g class="ldl-scale" style="transform-origin:50% 50%;transform:rotate(0deg) scale(0.68, 0.68);animation-play-state:paused" ><path fill="#333" d="M84 19.75H16c-4.963 0-9 3.701-9 8.25v44c0 4.549 4.037 8.25 9 8.25h68c4.963 0 9-3.701 9-8.25V28c0-4.549-4.037-8.25-9-8.25z" style="fill:rgb(104, 156, 197);animation-play-state:paused" ></path>
<path fill="#fff" d="M35.833 38.583a3 3 0 1 0 0-6H24.167a3 3 0 1 0 0 6H27v22.833h-2.833a3 3 0 1 0 0 6h11.667a3 3 0 1 0 0-6H33V38.583h2.833z" style="fill:rgb(147, 219, 233);animation-play-state:paused" ></path>
<metadata xmlns:d="https://loading.io/stock/" style="animation-play-state:paused" ><d:name style="animation-play-state:paused" >input</d:name>
<d:tags style="animation-play-state:paused" >keyboard,type,enter,cursor,press,text,input,form</d:tags>
<d:license style="animation-play-state:paused" >free</d:license>
<d:slug style="animation-play-state:paused" >lwvwfm</d:slug></metadata></g><!-- generated by https://loading.io/ --></svg>